<svg version="1.2" xmlns="http://www.w3.org/2000/svg" viewBox="0 0 25 28" width="25" height="28">
	<title>Logo-svg</title>
	<style>
		.s0 { fill: #20ad96 } 
		.s1 { fill: none;stroke: #ffffff;stroke-linecap: round;stroke-linejoin: round;stroke-width: 1.6 } 
	</style>
	<path id="Layer" class="s0" d="m16.3 3c1.6 0 3.1 0.9 3.9 2.3l3.9 6.6c0.8 1.5 0.8 3.2 0 4.7l-3.9 6.6c-0.8 1.4-2.3 2.3-3.9 2.3h-7.8c-1.7 0-3.2-0.9-4-2.3l-3.9-6.6c-0.8-1.5-0.8-3.2 0-4.7l3.9-6.6c0.8-1.4 2.3-2.3 4-2.3z"/>
	<path id="Layer" fill-rule="evenodd" class="s1" d="m7.8 19.5l2.6-2.5h5.8q0.4 0 0.6-0.3 0.3-0.2 0.3-0.6v-5q0-0.4-0.3-0.6-0.2-0.3-0.6-0.3h-7.5q-0.4 0-0.6 0.3-0.3 0.2-0.3 0.6z"/>
</svg>