<svg width="22" height="22" fill="none" xmlns="http://www.w3.org/2000/svg"><g clip-path="url(#a)" stroke-linecap="round" stroke-linejoin="round"><path d="M16.319 15.851s.07-.05.183-.137c1.69-1.306 2.748-3.199 2.748-5.306 0-3.929-3.694-7.117-8.248-7.117-4.556 0-8.252 3.188-8.252 7.117 0 3.93 3.694 7.009 8.25 7.009.389 0 1.027-.026 1.914-.077 1.157.751 2.845 1.368 4.323 1.368.457 0 .673-.376.38-.759-.446-.546-1.06-1.422-1.299-2.099v.001Z" stroke="#333461" stroke-width="2"/><path d="M6.875 12.375a5.81 5.81 0 0 0 8.25 0" stroke="#20AD96" stroke-width="1.5"/></g><defs><clipPath id="a"><path fill="#fff" d="M0 0h22v22H0z"/></clipPath></defs></svg>