<svg width="22" height="22" fill="none" xmlns="http://www.w3.org/2000/svg"><g clip-path="url(#a)" stroke-width="2" stroke-linecap="round" stroke-linejoin="round"><path d="M9.167 4.583a1.833 1.833 0 0 1 3.667 0 6.416 6.416 0 0 1 3.666 5.5v2.75a3.666 3.666 0 0 0 1.834 2.75H3.667a3.665 3.665 0 0 0 1.833-2.75v-2.75a6.417 6.417 0 0 1 3.667-5.5m-.917 11v.917a2.75 2.75 0 0 0 5.5 0v-.917" stroke="#333461"/><path d="M19.25 6.166a10.128 10.128 0 0 0-2.561-3.416M2.75 6.166A10.13 10.13 0 0 1 5.31 2.75" stroke="#20AD96"/></g><defs><clipPath id="a"><path fill="#fff" d="M0 0h22v22H0z"/></clipPath></defs></svg>