<svg width="12" height="11" fill="none" xmlns="http://www.w3.org/2000/svg"><path d="M7.861 0c.79 0 1.52.42 1.918 1.103l1.871 3.218c.402.69.402 1.541 0 2.23L9.78 9.77a2.219 2.219 0 0 1-1.919 1.103h-3.77c-.791 0-1.522-.42-1.919-1.103L.301 6.552a2.219 2.219 0 0 1 0-2.231l1.871-3.218A2.219 2.219 0 0 1 4.09 0h3.771Z" fill="#1386F5"/><path fill-rule="evenodd" clip-rule="evenodd" d="M8.083 7.1c.198.145.243.426.072.601a3.057 3.057 0 0 1-4.36 0c-.17-.175-.125-.456.073-.6.197-.145.472-.097.654.067a2.17 2.17 0 0 0 2.907 0c.181-.164.456-.212.654-.068Z" fill="#fff"/></svg>