<svg width="13" height="13" fill="none" xmlns="http://www.w3.org/2000/svg"><path d="M9.72 9.317s.044-.03.113-.083c1.031-.799 1.678-1.955 1.678-3.242 0-2.4-2.256-4.348-5.039-4.348S1.431 3.59 1.431 5.992s2.257 4.282 5.04 4.282c.238 0 .628-.016 1.17-.047.706.459 1.738.835 2.64.835.28 0 .412-.229.233-.463-.273-.334-.648-.869-.793-1.283v0Z" stroke="#333461" stroke-width="2" stroke-linecap="round" stroke-linejoin="round"/><path d="M3.951 7.193a3.55 3.55 0 0 0 5.04 0" stroke="#20AD96" stroke-width="1.5" stroke-linecap="round" stroke-linejoin="round"/></svg>